<svg width="20" height="20" viewBox="0 0 20 20" fill="none" xmlns="http://www.w3.org/2000/svg">
<path d="M6.875 3.75C6.875 2.02411 8.27411 0.625 10 0.625C11.7259 0.625 13.125 2.02411 13.125 3.75V10.625C13.125 12.3509 11.7259 13.75 10 13.75C8.27411 13.75 6.875 12.3509 6.875 10.625V3.75Z" fill="#737373"/>
<path d="M5 8.75C5.34518 8.75 5.625 9.02982 5.625 9.375V10.625C5.625 13.0412 7.58375 15 10 15C12.4162 15 14.375 13.0412 14.375 10.625V9.375C14.375 9.02982 14.6548 8.75 15 8.75C15.3452 8.75 15.625 9.02982 15.625 9.375V10.625C15.625 13.5203 13.4375 15.9048 10.625 16.2157V18.125H13.125C13.4702 18.125 13.75 18.4048 13.75 18.75C13.75 19.0952 13.4702 19.375 13.125 19.375H6.875C6.52982 19.375 6.25 19.0952 6.25 18.75C6.25 18.4048 6.52982 18.125 6.875 18.125H9.375V16.2157C6.56253 15.9048 4.375 13.5203 4.375 10.625V9.375C4.375 9.02982 4.65482 8.75 5 8.75Z" fill="#737373"/>
</svg>
