<svg width="20" height="20" viewBox="0 0 20 20" fill="none" xmlns="http://www.w3.org/2000/svg">
<path d="M18.125 5.625C18.125 7.69607 16.4461 9.375 14.375 9.375C14.2672 9.375 14.1604 9.37045 14.0549 9.36153C13.1587 9.28577 12.168 9.42101 11.5962 10.1153L5.63693 17.3516C5.23364 17.8413 4.63248 18.125 3.99807 18.125C2.82553 18.125 1.875 17.1745 1.875 16.0019C1.875 15.3675 2.1587 14.7664 2.64842 14.3631L9.88471 8.40377C10.579 7.83201 10.7142 6.8413 10.6385 5.94509C10.6296 5.83958 10.625 5.73282 10.625 5.625C10.625 3.55393 12.3039 1.875 14.375 1.875C14.9253 1.875 15.4479 1.99353 15.9187 2.20645L13.1885 4.93664C13.4019 5.86636 14.1338 6.59821 15.0635 6.81164L17.7936 4.08149C18.0065 4.55223 18.125 5.07478 18.125 5.625Z" stroke="#9CA3AF" stroke-linecap="round" stroke-linejoin="round"/>
<path d="M4.05603 15.9375H4.06228V15.9438H4.05603V15.9375Z" stroke="#9CA3AF" stroke-linecap="round" stroke-linejoin="round"/>
</svg>
