<svg width="20" height="20" viewBox="0 0 20 20" fill="none" xmlns="http://www.w3.org/2000/svg">
<path d="M14.9999 15.5993C15.2062 15.6163 15.4148 15.625 15.6255 15.625C16.4991 15.625 17.3378 15.4756 18.1175 15.201C18.1228 15.1347 18.1255 15.0677 18.1255 15C18.1255 13.6193 17.0062 12.5 15.6255 12.5C15.1025 12.5 14.617 12.6606 14.2156 12.9352M14.9999 15.5993C15 15.6079 15 15.6164 15 15.625C15 15.8125 14.9897 15.9976 14.9696 16.1797C13.5056 17.0197 11.8089 17.5 10 17.5C8.19111 17.5 6.49439 17.0197 5.03042 16.1797C5.01032 15.9976 5 15.8125 5 15.625C5 15.6165 5.00002 15.6079 5.00006 15.5994M14.9999 15.5993C14.995 14.6188 14.7079 13.7051 14.2156 12.9352M14.2156 12.9352C13.3273 11.546 11.7712 10.625 10 10.625C8.22899 10.625 6.67304 11.5458 5.78474 12.9347M5.78474 12.9347C5.38352 12.6604 4.8983 12.5 4.37561 12.5C2.9949 12.5 1.87561 13.6193 1.87561 15C1.87561 15.0677 1.8783 15.1347 1.88358 15.201C2.66327 15.4756 3.502 15.625 4.37561 15.625C4.5859 15.625 4.79416 15.6163 5.00006 15.5994M5.78474 12.9347C5.29225 13.7047 5.00499 14.6187 5.00006 15.5994M12.5 5.625C12.5 7.00571 11.3807 8.125 10 8.125C8.61929 8.125 7.5 7.00571 7.5 5.625C7.5 4.24429 8.61929 3.125 10 3.125C11.3807 3.125 12.5 4.24429 12.5 5.625ZM17.5 8.125C17.5 9.16053 16.6605 10 15.625 10C14.5895 10 13.75 9.16053 13.75 8.125C13.75 7.08947 14.5895 6.25 15.625 6.25C16.6605 6.25 17.5 7.08947 17.5 8.125ZM6.25 8.125C6.25 9.16053 5.41053 10 4.375 10C3.33947 10 2.5 9.16053 2.5 8.125C2.5 7.08947 3.33947 6.25 4.375 6.25C5.41053 6.25 6.25 7.08947 6.25 8.125Z" stroke="#9CA3AF" stroke-linecap="round" stroke-linejoin="round"/>
</svg>
