<svg width="16" height="16" viewBox="0 0 16 16" fill="none" xmlns="http://www.w3.org/2000/svg">
<path d="M4.48008 9.21912C4.31963 9.23924 4.1596 9.26073 4 9.28356M4.48008 9.21912C5.63305 9.07451 6.80782 9 8 9C9.19218 9 10.367 9.07451 11.5199 9.21912M4.48008 9.21912L4.22727 12M11.5199 9.21912C11.6804 9.23924 11.8404 9.26073 12 9.28356M11.5199 9.21912L11.7727 12M11.7727 12L11.9256 13.6821C11.9656 14.1213 11.6197 14.5 11.1787 14.5H4.82127C4.38025 14.5 4.03443 14.1213 4.07435 13.6821L4.22727 12M11.7727 12H12.5C13.3284 12 14 11.3284 14 10.5V6.30379C14 5.58317 13.4881 4.96054 12.7754 4.85391C12.3529 4.79069 11.9277 4.73574 11.5 4.68921M4.22727 12H3.5C2.67157 12 2 11.3284 2 10.5V6.30379C2 5.58317 2.51194 4.96054 3.22463 4.85391C3.64711 4.79069 4.07229 4.73574 4.5 4.68921M11.5 4.68921C10.3505 4.56417 9.18275 4.5 8 4.5C6.81725 4.5 5.64949 4.56417 4.5 4.68921M11.5 4.68921V2.25C11.5 1.83579 11.1642 1.5 10.75 1.5H5.25C4.83579 1.5 4.5 1.83579 4.5 2.25V4.68921M12 7H12.005V7.005H12V7ZM10 7H10.005V7.005H10V7Z" stroke="#0A111F" stroke-linecap="round" stroke-linejoin="round"/>
</svg>
