<svg width="29" height="29" viewBox="0 0 29 29" fill="none" xmlns="http://www.w3.org/2000/svg">
<rect x="0.160645" width="28" height="28" rx="6" transform="rotate(0.328713 0.160645 0)" fill="#F0FDF4"/>
<path d="M16.5266 20.1174C17.2207 20.3194 17.9547 20.4277 18.7141 20.4277C19.9464 20.4277 21.112 20.1424 22.1486 19.6343C22.1506 19.5865 22.1516 19.5385 22.1516 19.4902C22.1516 17.5918 20.6126 16.0527 18.7141 16.0527C17.5324 16.0527 16.49 16.649 15.8713 17.5571M16.5266 20.1174V20.1152C16.5266 19.1878 16.289 18.3159 15.8713 17.5571M16.5266 20.1174C16.5266 20.1471 16.5263 20.1767 16.5258 20.2063C14.9744 21.1404 13.157 21.6777 11.2141 21.6777C9.27122 21.6777 7.45381 21.1404 5.90238 20.2063C5.90187 20.176 5.90161 20.1457 5.90161 20.1152C5.90161 17.1812 8.2801 14.8027 11.2141 14.8027C13.2207 14.8027 14.9675 15.9152 15.8713 17.5571M14.0266 9.49023C14.0266 11.0435 12.7674 12.3027 11.2141 12.3027C9.66081 12.3027 8.40161 11.0435 8.40161 9.49023C8.40161 7.93693 9.66081 6.67773 11.2141 6.67773C12.7674 6.67773 14.0266 7.93693 14.0266 9.49023ZM20.9016 11.3652C20.9016 12.5734 19.9222 13.5527 18.7141 13.5527C17.506 13.5527 16.5266 12.5734 16.5266 11.3652C16.5266 10.1571 17.506 9.17773 18.7141 9.17773C19.9222 9.17773 20.9016 10.1571 20.9016 11.3652Z" stroke="#059669" stroke-linecap="round" stroke-linejoin="round"/>
</svg>
