<svg width="20" height="20" viewBox="0 0 20 20" fill="none" xmlns="http://www.w3.org/2000/svg">
<path d="M15.8333 14.1667H17.5C18 14.1667 18.3333 13.8333 18.3333 13.3333V10.8333C18.3333 10.0833 17.75 9.41667 17.0833 9.25C15.5833 8.83334 13.3333 8.33334 13.3333 8.33334C13.3333 8.33334 12.25 7.16667 11.5 6.41667C11.0833 6.08334 10.5833 5.83334 10 5.83334H4.16667C3.66667 5.83334 3.25 6.16667 3 6.58334L1.83333 9C1.72298 9.32186 1.66667 9.65976 1.66667 10V13.3333C1.66667 13.8333 2 14.1667 2.5 14.1667H4.16667" stroke="white" stroke-linecap="round" stroke-linejoin="round"/>
<path d="M5.83333 15.8333C6.75381 15.8333 7.5 15.0871 7.5 14.1667C7.5 13.2462 6.75381 12.5 5.83333 12.5C4.91286 12.5 4.16667 13.2462 4.16667 14.1667C4.16667 15.0871 4.91286 15.8333 5.83333 15.8333Z" stroke="white" stroke-linecap="round" stroke-linejoin="round"/>
<path d="M7.5 14.1667H12.5" stroke="white" stroke-linecap="round" stroke-linejoin="round"/>
<path d="M14.1667 15.8333C15.0871 15.8333 15.8333 15.0871 15.8333 14.1667C15.8333 13.2462 15.0871 12.5 14.1667 12.5C13.2462 12.5 12.5 13.2462 12.5 14.1667C12.5 15.0871 13.2462 15.8333 14.1667 15.8333Z" stroke="white" stroke-linecap="round" stroke-linejoin="round"/>
</svg>
