<svg width="20" height="20" viewBox="0 0 20 20" fill="none" xmlns="http://www.w3.org/2000/svg">
<path d="M15.8334 14.1668H17.5C18 14.1668 18.3334 13.8335 18.3334 13.3335V10.8335C18.3334 10.0835 17.75 9.41683 17.0834 9.25016C15.5834 8.8335 13.3334 8.3335 13.3334 8.3335C13.3334 8.3335 12.25 7.16683 11.5 6.41683C11.0834 6.0835 10.5834 5.8335 10 5.8335H4.16669C3.66669 5.8335 3.25002 6.16683 3.00002 6.5835L1.83335 9.00016C1.723 9.32202 1.66669 9.65992 1.66669 10.0002V13.3335C1.66669 13.8335 2.00002 14.1668 2.50002 14.1668H4.16669" stroke="white" stroke-linecap="round" stroke-linejoin="round"/>
<path d="M5.83335 15.8333C6.75383 15.8333 7.50002 15.0871 7.50002 14.1667C7.50002 13.2462 6.75383 12.5 5.83335 12.5C4.91288 12.5 4.16669 13.2462 4.16669 14.1667C4.16669 15.0871 4.91288 15.8333 5.83335 15.8333Z" stroke="white" stroke-linecap="round" stroke-linejoin="round"/>
<path d="M7.5 14.1665H12.5" stroke="white" stroke-linecap="round" stroke-linejoin="round"/>
<path d="M14.1667 15.8333C15.0871 15.8333 15.8333 15.0871 15.8333 14.1667C15.8333 13.2462 15.0871 12.5 14.1667 12.5C13.2462 12.5 12.5 13.2462 12.5 14.1667C12.5 15.0871 13.2462 15.8333 14.1667 15.8333Z" stroke="white" stroke-linecap="round" stroke-linejoin="round"/>
</svg>
