<svg width="16" height="16" viewBox="0 0 16 16" fill="none" xmlns="http://www.w3.org/2000/svg">
<path d="M8.00004 8.66665C8.36823 8.66665 8.66671 8.36817 8.66671 7.99998C8.66671 7.63179 8.36823 7.33331 8.00004 7.33331C7.63185 7.33331 7.33337 7.63179 7.33337 7.99998C7.33337 8.36817 7.63185 8.66665 8.00004 8.66665Z" stroke="#9CA3AF" stroke-width="1.33333" stroke-linecap="round" stroke-linejoin="round"/>
<path d="M8.00004 4.00002C8.36823 4.00002 8.66671 3.70154 8.66671 3.33335C8.66671 2.96516 8.36823 2.66669 8.00004 2.66669C7.63185 2.66669 7.33337 2.96516 7.33337 3.33335C7.33337 3.70154 7.63185 4.00002 8.00004 4.00002Z" stroke="#9CA3AF" stroke-width="1.33333" stroke-linecap="round" stroke-linejoin="round"/>
<path d="M8.00004 13.3333C8.36823 13.3333 8.66671 13.0349 8.66671 12.6667C8.66671 12.2985 8.36823 12 8.00004 12C7.63185 12 7.33337 12.2985 7.33337 12.6667C7.33337 13.0349 7.63185 13.3333 8.00004 13.3333Z" stroke="#9CA3AF" stroke-width="1.33333" stroke-linecap="round" stroke-linejoin="round"/>
</svg>
