<svg width="14" height="14" viewBox="0 0 14 14" fill="none" xmlns="http://www.w3.org/2000/svg">
<path d="M3.50004 12.8333C3.19062 12.8333 2.89388 12.7104 2.67508 12.4916C2.45629 12.2728 2.33337 11.9761 2.33337 11.6667V2.33333C2.33337 2.02391 2.45629 1.72717 2.67508 1.50837C2.89388 1.28958 3.19062 1.16667 3.50004 1.16667H8.16671C8.35136 1.16637 8.53426 1.2026 8.70485 1.27328C8.87544 1.34396 9.03037 1.44769 9.16071 1.5785L11.2537 3.6715C11.3849 3.80188 11.4889 3.95695 11.5598 4.12776C11.6307 4.29857 11.667 4.48173 11.6667 4.66667V11.6667C11.6667 11.9761 11.5438 12.2728 11.325 12.4916C11.1062 12.7104 10.8095 12.8333 10.5 12.8333H3.50004Z" fill="white" stroke="#059669" stroke-width="1.16667" stroke-linecap="round" stroke-linejoin="round"/>
<path d="M8.16663 1.16666V4.08333C8.16663 4.23804 8.22808 4.38641 8.33748 4.49581C8.44688 4.60521 8.59525 4.66666 8.74996 4.66666H11.6666" fill="white"/>
<path d="M8.16663 1.16666V4.08333C8.16663 4.23804 8.22808 4.38641 8.33748 4.49581C8.44688 4.60521 8.59525 4.66666 8.74996 4.66666H11.6666" stroke="#059669" stroke-width="1.16667" stroke-linecap="round" stroke-linejoin="round"/>
<path d="M4.66663 7.58333H5.83329H4.66663Z" fill="white"/>
<path d="M4.66663 7.58333H5.83329" stroke="#059669" stroke-width="1.16667" stroke-linecap="round" stroke-linejoin="round"/>
<path d="M8.16663 7.58333H9.33329H8.16663Z" fill="white"/>
<path d="M8.16663 7.58333H9.33329" stroke="#059669" stroke-width="1.16667" stroke-linecap="round" stroke-linejoin="round"/>
<path d="M4.66663 9.91667H5.83329H4.66663Z" fill="white"/>
<path d="M4.66663 9.91667H5.83329" stroke="#059669" stroke-width="1.16667" stroke-linecap="round" stroke-linejoin="round"/>
<path d="M8.16663 9.91667H9.33329H8.16663Z" fill="white"/>
<path d="M8.16663 9.91667H9.33329" stroke="#059669" stroke-width="1.16667" stroke-linecap="round" stroke-linejoin="round"/>
</svg>
